<svg xmlns="http://www.w3.org/2000/svg" width="535.392" height="107.991" viewBox="0 0 535.392 107.991">
  <g id="Group_11" data-name="Group 11" transform="translate(-1668.29 -242.564)">
    <g id="Group_9" data-name="Group 9" transform="translate(1668.29 242.564)">
      <g id="Group_8" data-name="Group 8">
        <g id="Group_6" data-name="Group 6">
          <path id="Path_4" data-name="Path 4" d="M1795.311,242.564l-29.275,28.317-29.281-28.317-68.466,66.215,43.212,41.776V308.709h-12.94V320.04l-11.65-11.268,49.844-48.205,19.976,19.325-30.438,28.81,39.74,38.443,39.739-38.443-30.438-28.81,19.976-19.325,49.844,48.205L1833.5,320.04V308.709h-12.939v41.846l43.212-41.776Zm-8.145,66.145-21.133,20.441L1744.9,308.709l21.133-19.847Z" transform="translate(-1668.29 -242.564)" fill="#fff"/>
        </g>
        <g id="Group_7" data-name="Group 7" transform="translate(178.83 18.003)">
          <path id="Path_5" data-name="Path 5" d="M1995.424,275.5h6.787v1.3h-2.667v7.349h-1.466V276.8h-2.653Z" transform="translate(-1995.424 -275.496)" fill="#fff"/>
          <path id="Path_6" data-name="Path 6" d="M2009.986,275.5h2.064l2.31,6.781h.023l2.258-6.781h2.041v8.65h-1.4v-6.674h-.023l-2.322,6.674h-1.21l-2.328-6.674h-.023v6.674h-1.4Z" transform="translate(-2002.026 -275.496)" fill="#fff"/>
        </g>
      </g>
    </g>
    <g id="Group_10" data-name="Group 10" transform="translate(1891.207 266.227)">
      <path id="Path_7" data-name="Path 7" d="M2137.709,292.073v56.534H2126.37V311.836l-15.146,36.771h-8.586l-15.227-36.771v36.771h-11.339V292.073h12.878l17.981,42.036,17.981-42.036Z" transform="translate(-2076.072 -288.671)" fill="#fff"/>
      <path id="Path_8" data-name="Path 8" d="M2215.18,355.529a20.687,20.687,0,0,1-8.14-8.141,24.378,24.378,0,0,1-2.957-12.149,23.878,23.878,0,0,1,3.037-12.149,21.1,21.1,0,0,1,8.3-8.14,25.421,25.421,0,0,1,23.488,0,21.116,21.116,0,0,1,8.3,8.14,23.875,23.875,0,0,1,3.037,12.149,23.39,23.39,0,0,1-3.117,12.149,21.6,21.6,0,0,1-8.424,8.141,24.5,24.5,0,0,1-11.866,2.875A23.632,23.632,0,0,1,2215.18,355.529Zm17.454-8.5a10.892,10.892,0,0,0,4.333-4.5,15.148,15.148,0,0,0,1.62-7.289q0-6.4-3.362-9.841a11.049,11.049,0,0,0-8.221-3.442,10.788,10.788,0,0,0-8.14,3.442q-3.282,3.443-3.281,9.841t3.2,9.841a10.531,10.531,0,0,0,8.059,3.442A11.79,11.79,0,0,0,2232.634,347.024Z" transform="translate(-2134.105 -297.739)" fill="#fff"/>
      <path id="Path_9" data-name="Path 9" d="M2301.176,323.009a19.881,19.881,0,0,1,7.37-8.1,19.62,19.62,0,0,1,10.408-2.835,18.3,18.3,0,0,1,8.787,2.025,17.833,17.833,0,0,1,6.034,5.1v-6.4H2345.2v44.871h-11.421v-6.56a16.873,16.873,0,0,1-6.034,5.224,18.46,18.46,0,0,1-8.869,2.065,19.072,19.072,0,0,1-10.326-2.916,20.387,20.387,0,0,1-7.37-8.221,26.385,26.385,0,0,1-2.714-12.19A25.958,25.958,0,0,1,2301.176,323.009Zm30.98,5.143a11.437,11.437,0,0,0-4.374-4.535,11.686,11.686,0,0,0-5.912-1.58,11.386,11.386,0,0,0-10.165,6.035,14.075,14.075,0,0,0-1.66,7.006,14.535,14.535,0,0,0,1.66,7.087,11.935,11.935,0,0,0,4.374,4.657,11.1,11.1,0,0,0,5.791,1.62,11.686,11.686,0,0,0,5.912-1.58,11.427,11.427,0,0,0,4.374-4.535,16.321,16.321,0,0,0,0-14.175Z" transform="translate(-2176.891 -297.739)" fill="#fff"/>
      <path id="Path_10" data-name="Path 10" d="M2401.629,311.12a19.562,19.562,0,0,1,17.859-10.934,19.07,19.07,0,0,1,8.343,1.9,16.693,16.693,0,0,1,6.318,5.063v-21.3h11.5v59.936h-11.5v-6.641a15.361,15.361,0,0,1-5.913,5.346,18.535,18.535,0,0,1-8.828,2.025,19.275,19.275,0,0,1-10.367-2.916,20.3,20.3,0,0,1-7.411-8.221,26.394,26.394,0,0,1-2.714-12.19A25.967,25.967,0,0,1,2401.629,311.12Zm30.981,5.143a11.438,11.438,0,0,0-4.375-4.535,11.683,11.683,0,0,0-5.912-1.58,11.387,11.387,0,0,0-10.165,6.035,14.083,14.083,0,0,0-1.66,7.006,14.543,14.543,0,0,0,1.66,7.087,11.939,11.939,0,0,0,4.375,4.657,11.1,11.1,0,0,0,5.791,1.62,11.683,11.683,0,0,0,5.912-1.58,11.427,11.427,0,0,0,4.375-4.535,16.317,16.317,0,0,0,0-14.175Z" transform="translate(-2222.431 -285.85)" fill="#fff"/>
      <path id="Path_11" data-name="Path 11" d="M2502.083,323.009a19.885,19.885,0,0,1,7.371-8.1,19.62,19.62,0,0,1,10.408-2.835,18.3,18.3,0,0,1,8.788,2.025,17.848,17.848,0,0,1,6.034,5.1v-6.4H2546.1v44.871h-11.421v-6.56a16.874,16.874,0,0,1-6.034,5.224,18.46,18.46,0,0,1-8.869,2.065,19.072,19.072,0,0,1-10.327-2.916,20.391,20.391,0,0,1-7.371-8.221,26.388,26.388,0,0,1-2.713-12.19A25.961,25.961,0,0,1,2502.083,323.009Zm30.98,5.143a11.44,11.44,0,0,0-4.374-4.535,11.686,11.686,0,0,0-5.912-1.58,11.387,11.387,0,0,0-10.165,6.035,14.078,14.078,0,0,0-1.66,7.006,14.537,14.537,0,0,0,1.66,7.087,11.937,11.937,0,0,0,4.374,4.657,11.1,11.1,0,0,0,5.791,1.62,11.686,11.686,0,0,0,5.912-1.58,11.429,11.429,0,0,0,4.374-4.535,16.317,16.317,0,0,0,0-14.175Z" transform="translate(-2267.971 -297.739)" fill="#fff"/>
      <path id="Path_12" data-name="Path 12" d="M2615.405,313.522v21.707a4.289,4.289,0,0,0,1.093,3.28,5.366,5.366,0,0,0,3.685,1.012h5.266v9.557h-7.128q-14.336,0-14.336-13.931V313.522h-5.346v-9.315h5.346v-11.1h11.42v11.1h10.044v9.315Z" transform="translate(-2312.974 -289.142)" fill="#fff"/>
    </g>
  </g>
</svg>
